<?xml version="1.0" encoding="utf-8"?>
<!-- Generator: Adobe Illustrator 26.4.1, SVG Export Plug-In . SVG Version: 6.00 Build 0)  -->
<svg version="1.1" id="Layer_1" xmlns="http://www.w3.org/2000/svg" xmlns:xlink="http://www.w3.org/1999/xlink" x="0px" y="0px"
	 viewBox="0 0 332.7 63" style="enable-background:new 0 0 332.7 63;" xml:space="preserve">
<style type="text/css">
	.st0{fill:#FFFFFF;}
	.st1{fill:#08F001;}
</style>
<g>
	<path class="st0" d="M9,0v9H0v54h9h45v-9h9v-9V9V0H9z M54,45H18V9h36V45z"/>
	<rect x="27" y="18" class="st1" width="18" height="18"/>
	<g>
		<polygon class="st0" points="80.9,9 80.9,54 89.9,54 107.9,54 116.9,54 116.9,45 107.9,45 89.9,45 89.9,36 107.9,36 107.9,27 
			89.9,27 89.9,18 116.9,18 116.9,9 89.9,9 		"/>
		<polygon class="st0" points="125.9,18 125.9,54 134.9,54 134.9,18 152.9,18 152.9,27 143.9,27 143.9,36 152.9,36 161.9,36 
			161.9,18 161.9,9 125.9,9 		"/>
		<polygon class="st0" points="170.9,9 170.9,54 179.9,54 179.9,18 197.8,18 197.8,27 188.9,27 188.9,36 197.8,36 197.8,54 
			206.8,54 206.8,18 206.8,9 179.9,9 		"/>
		<polygon class="st0" points="224.8,9 215.8,9 215.8,54 224.8,54 224.8,18 242.8,18 242.8,9 		"/>
		<rect x="242.8" y="18" class="st0" width="9" height="36"/>
		<polygon class="st0" points="260.8,9 260.8,54 269.8,54 287.8,54 296.8,54 296.8,45 287.8,45 269.8,45 269.8,36 287.8,36 
			287.8,27 269.8,27 269.8,18 296.8,18 296.8,9 269.8,9 		"/>
		<polygon class="st0" points="314.8,45 314.8,9 305.8,9 305.8,54 314.8,54 332.7,54 332.7,45 		"/>
	</g>
</g>
</svg>
